<?xml version="1.0" encoding="utf-8"?>

<!DOCTYPE svg PUBLIC "-//W3C//DTD SVG 1.1//EN" "http://www.w3.org/Graphics/SVG/1.1/DTD/svg11.dtd">
<svg version="1.1" id="Layer_1" xmlns="http://www.w3.org/2000/svg" xmlns:xlink="http://www.w3.org/1999/xlink" x="0px" y="0px"
	 viewBox="448.4923 62.5066 1663.0565 1451.5532" enable-background="new 448.4923 62.5066 1663.0565 1451.5532"
	 xml:space="preserve">
<g id="Ebene_1" display="none">
	
		<image display="inline" overflow="visible" enable-background="new    " width="1280" height="1112" xlink:href="A6FB780E.jpeg"  transform="matrix(1.25 0 0 1.25 480.0001 96.5235)">
	</image>
</g>
<g id="Ebene_2">
	<path d="M1444.7211,1123.7974c0,0,167.0302-516.7415-251.4432-626.0424c0,0-59.782-39.256-63.374-53.111
		s-44.3875-59.7819-71.8409-71.8409c0,0-23.8615-73.6369-39.2559-83.8999c0,0,32.585-177.8063-6.9276-196.7928
		c-39.2559-18.4734-95.7024,90.8274-95.7024,90.8274s-97.4984,10.263-109.5574,5.1315
		c-12.059-5.1315-109.5574-102.6299-128.2874-87.2354s-17.1905,47.9795,8.467,184.7338c0,0-92.3669,104.4259,59.7819,254.7787
		c0,0,8.467,17.1905,17.1905,47.9795c8.467,30.7889-13.5985,50.5452,18.73,121.1033
		c32.585,70.558,97.4984,176.5234,87.2354,197.0493c0,0,6.9276,236.0488-17.1905,246.3118
		c-24.118,10.2629-69.2751,54.6504-15.3945,80.3079c0,0,0.2566,30.7889,18.73,39.2559c40.2822,18.73,82.1039,15.3945,100.8339,0
		c18.73-15.3944,30.7889-18.7299,47.9795-58.2424l41.0519,6.9275c-2.8223,6.4144-9.4932,24.3746-2.0526,42.0782
		c0,0,6.1578,14.3682,24.3746,24.6312c28.9929,16.4208,121.6165,6.4143,239.3842-25.6575c0,0,54.6504,37.7166,143.6819-10.2631
		c89.0315-47.9795,304.5542-49.5188,361.0007,10.2631c56.4464,59.7819-167.2867,94.4196-167.2867,94.4196
		s-76.9724,59.782,23.8613,70.0449c100.8339,10.2629,350.7377-92.3669,249.6472-194.9968S1615.5999,1087.877,1444.7211,1123.7974z"
		/>
</g>
</svg>
